<?xml version="1.0" encoding="UTF-8"?>
<svg width="172px" height="172px" viewBox="0 0 172 172" version="1.1" xmlns="http://www.w3.org/2000/svg" xmlns:xlink="http://www.w3.org/1999/xlink">
    <!-- Generator: sketchtool 59.1 (101010) - https://sketch.com -->
    <title>A56E1BE6-1392-419E-8D19-77A565DBBD22</title>
    <desc>Created with sketchtool.</desc>
    <defs>
        <filter x="-3.3%" y="-7.0%" width="106.7%" height="114.9%" filterUnits="objectBoundingBox" id="filter-1">
            <feOffset dx="4" dy="4" in="SourceAlpha" result="shadowOffsetOuter1"></feOffset>
            <feGaussianBlur stdDeviation="7.5" in="shadowOffsetOuter1" result="shadowBlurOuter1"></feGaussianBlur>
            <feColorMatrix values="0 0 0 0 0   0 0 0 0 0   0 0 0 0 0  0 0 0 0.3 0" type="matrix" in="shadowBlurOuter1" result="shadowMatrixOuter1"></feColorMatrix>
            <feMerge>
                <feMergeNode in="shadowMatrixOuter1"></feMergeNode>
                <feMergeNode in="SourceGraphic"></feMergeNode>
            </feMerge>
        </filter>
    </defs>
    <g id="Page-1" stroke="none" stroke-width="1" fill="none" fill-rule="evenodd">
        <g id="1.3" transform="translate(-506.000000, -473.000000)" fill="#EC5A5A">
            <g id="Group-8" transform="translate(382.000000, 289.000000)">
                <g id="Exit-invoice-popup">
                    <g id="Box-serial-numbers" filter="url(#filter-1)">
                        <g id="Group-9" transform="translate(65.000000, 171.000000)">
                            <g id="Group-7" transform="translate(70.000000, 24.000000)">
                                <path d="M71.162,7.064 C35.818,7.064 7.064,35.819 7.064,71.163 C7.064,106.507 35.818,135.262 71.162,135.262 C106.506,135.262 135.261,106.507 135.261,71.163 C135.261,35.819 106.506,7.064 71.162,7.064 Z M71.162,142.326 C31.923,142.326 2.84217094e-14,110.403 2.84217094e-14,71.163 C2.84217094e-14,31.923 31.923,1.42108547e-14 71.162,1.42108547e-14 C110.402,1.42108547e-14 142.325,31.923 142.325,71.163 C142.325,110.403 110.402,142.326 71.162,142.326 L71.162,142.326 Z" id="Fill-97"></path>
                                <path d="M41.234,68.157 C32.604,68.157 25.583,61.137 25.583,52.507 L32.647,52.507 C32.647,57.241 36.499,61.093 41.234,61.093 C45.968,61.093 49.82,57.241 49.82,52.507 L56.884,52.507 C56.884,61.137 49.863,68.157 41.234,68.157" id="Fill-98"></path>
                                <path d="M100.651,68.65 C92.021,68.65 85,61.63 85,53 L92.064,53 C92.064,57.734 95.916,61.586 100.651,61.586 C105.385,61.586 109.237,57.734 109.237,53 L116.301,53 C116.301,61.63 109.281,68.65 100.651,68.65" id="Fill-99"></path>
                                <path d="M49.128,108.348 L43.252,104.427 C49.505,95.056 59.957,89.461 71.21,89.461 C82.386,89.461 92.799,94.996 99.062,104.268 L93.208,108.222 C88.26,100.898 80.036,96.525 71.21,96.525 C62.323,96.525 54.067,100.945 49.128,108.348" id="Fill-100"></path>
                            </g>
                        </g>
                    </g>
                </g>
            </g>
        </g>
    </g>
</svg>