<?xml version="1.0" encoding="UTF-8"?>
<svg width="172px" height="172px" viewBox="0 0 172 172" version="1.1" xmlns="http://www.w3.org/2000/svg" xmlns:xlink="http://www.w3.org/1999/xlink">
    <!-- Generator: sketchtool 59.1 (101010) - https://sketch.com -->
    <title>5204054F-6D0A-4C8B-900E-5641B36BDCBB</title>
    <desc>Created with sketchtool.</desc>
    <defs>
        <filter x="-3.3%" y="-7.0%" width="106.7%" height="114.9%" filterUnits="objectBoundingBox" id="filter-1">
            <feOffset dx="4" dy="4" in="SourceAlpha" result="shadowOffsetOuter1"></feOffset>
            <feGaussianBlur stdDeviation="7.5" in="shadowOffsetOuter1" result="shadowBlurOuter1"></feGaussianBlur>
            <feColorMatrix values="0 0 0 0 0   0 0 0 0 0   0 0 0 0 0  0 0 0 0.3 0" type="matrix" in="shadowBlurOuter1" result="shadowMatrixOuter1"></feColorMatrix>
            <feMerge>
                <feMergeNode in="shadowMatrixOuter1"></feMergeNode>
                <feMergeNode in="SourceGraphic"></feMergeNode>
            </feMerge>
        </filter>
    </defs>
    <g id="Page-1" stroke="none" stroke-width="1" fill="none" fill-rule="evenodd">
        <g id="1.3" transform="translate(-878.000000, -473.000000)">
            <g id="Group-8" transform="translate(382.000000, 289.000000)">
                <g id="Exit-invoice-popup">
                    <g id="Box-serial-numbers" filter="url(#filter-1)">
                        <g id="Group-10" transform="translate(436.500000, 171.000000)">
                            <g id="Group" transform="translate(70.000000, 24.000000)">
                                <g id="Group-6" fill="#FF8400">
                                    <path d="M71.163,7.064 C35.819,7.064 7.064,35.819 7.064,71.163 C7.064,106.507 35.819,135.262 71.163,135.262 C106.507,135.262 135.261,106.507 135.261,71.163 C135.261,35.819 106.507,7.064 71.163,7.064 Z M71.163,142.326 C31.923,142.326 2.84217094e-14,110.403 2.84217094e-14,71.163 C2.84217094e-14,31.923 31.923,1.42108547e-14 71.163,1.42108547e-14 C110.402,1.42108547e-14 142.325,31.923 142.325,71.163 C142.325,110.403 110.402,142.326 71.163,142.326 L71.163,142.326 Z" id="Fill-119"></path>
                                </g>
                                <line x1="41.5" y1="102" x2="101.5" y2="102" id="Line-2" stroke="#FF8400" stroke-width="6" stroke-linecap="square"></line>
                                <circle id="Oval" fill="#FF8400" cx="44" cy="58" r="10"></circle>
                                <circle id="Oval-Copy" fill="#FF8400" cx="99" cy="58" r="10"></circle>
                            </g>
                        </g>
                    </g>
                </g>
            </g>
        </g>
    </g>
</svg>